# xmcd
#
# Track frame offsets: 
#        150
#        22133
#        42388
#        63783
#        85333
#        109078
#        141143
#        157385
#        181260
#        206340
#        231363
#        253605
#
# Disc length: 3712 seconds
#
# Revision: 3
# Processed by: cddbd v1.5.2PL0 Copyright (c) Steve Scherf et al.
# Submitted via: ExactAudioCopy v1.0b3
#
DISCID=a80e7e0c
DTITLE=GLAY - REVIEW
DYEAR=1997
DGENRE=J-Pop
TTITLE0=グロリアス
TTITLE1=彼女の"Modan…"
TTITLE2=BELOVED
TTITLE3=More than Love
TTITLE4=千ノナイフガ胸ヲ刺ス
TTITLE5=ずっと2人で…
TTITLE6=口唇
TTITLE7=RHAPSODY
TTITLE8=HOWEVER
TTITLE9=Freeze My Love
TTITLE10=KISSIN' NOISE
TTITLE11=軌跡の果て
EXTD=YEAR: 1997
EXTT0=
EXTT1=
EXTT2=
EXTT3=
EXTT4=
EXTT5=
EXTT6=
EXTT7=
EXTT8=
EXTT9=
EXTT10=
EXTT11=
PLAYORDER=
